<svg width="14" height="14" viewBox="0 0 14 14" fill="none" xmlns="http://www.w3.org/2000/svg">
<path d="M7 0.158539C3.25391 0.158539 0.21875 3.1937 0.21875 6.93979C0.21875 10.6859 3.25391 13.721 7 13.721C10.7461 13.721 13.7812 10.6859 13.7812 6.93979C13.7812 3.1937 10.7461 0.158539 7 0.158539ZM9.51562 8.71713L8.96875 9.40073C8.88672 9.5101 8.77734 9.59213 8.61328 9.59213C8.53125 9.59213 8.42188 9.53745 8.36719 9.48276L6.53516 8.11557C6.26172 7.92416 6.125 7.62338 6.125 7.26791V3.00229C6.125 2.78354 6.31641 2.56479 6.5625 2.56479H7.4375C7.65625 2.56479 7.875 2.78354 7.875 3.00229V6.93979L9.46094 8.11557C9.54297 8.1976 9.625 8.30698 9.625 8.4437C9.625 8.55307 9.57031 8.66245 9.51562 8.71713Z" fill="white"/>
</svg>
